<?xml version="1.0" encoding="iso-8859-1"?>
<!-- Uploaded to: SVG Repo, www.svgrepo.com, Generator: SVG Repo Mixer Tools -->
<svg height="800px" width="800px" version="1.1" id="Layer_1" xmlns="http://www.w3.org/2000/svg" xmlns:xlink="http://www.w3.org/1999/xlink" 
	 viewBox="0 0 512 512" xml:space="preserve">
<path style="fill:#EDEDED;" d="M445.217,489.739H66.783c-24.588,0-44.522-19.934-44.522-44.522V66.782
	c0-24.588,19.933-44.522,44.522-44.522h378.435c24.588,0,44.522,19.933,44.522,44.522v378.435
	C489.739,469.805,469.806,489.739,445.217,489.739z"/>
<path style="fill:#FFBD7C;" d="M489.739,368.417v76.8c0,24.588-19.934,44.522-44.522,44.522H66.783
	c-24.588,0-44.522-19.934-44.522-44.522V145.809h155.312l188.885,222.216c0.211,0.249,0.521,0.393,0.848,0.393H489.739z"/>
<path style="fill:#FF6029;" d="M509.555,373.207l-22.261,22.261c-1.631,1.629-3.768,2.445-5.904,2.445s-4.273-0.815-5.904-2.445
	c-3.26-3.26-3.26-8.546,0-11.805l8.011-8.011H367.304c-2.449,0-4.775-1.075-6.361-2.942L174.227,153.043H33.391
	c-4.61,0-8.348-3.738-8.348-8.348c0-4.61,3.738-8.348,8.348-8.348h144.696c2.449,0,4.775,1.075,6.36,2.942l186.719,219.667h112.333
	l-8.011-8.011c-3.26-3.26-3.26-8.546,0-11.805c3.261-3.26,8.546-3.26,11.806,0l22.261,22.261
	C512.815,364.661,512.815,369.948,509.555,373.207z"/>
<path style="fill:#B7441C;" d="M200.348,144.696c0,12.295-9.966,22.261-22.261,22.261c-12.295,0-22.261-9.966-22.261-22.261
	c0-12.295,9.966-22.261,22.261-22.261C190.382,122.435,200.348,132.401,200.348,144.696z M367.304,345.043
	c-12.295,0-22.261,9.966-22.261,22.261c0,12.295,9.966,22.261,22.261,22.261c12.295,0,22.261-9.966,22.261-22.261
	C389.565,355.01,379.599,345.043,367.304,345.043z M22.261,122.435C9.966,122.435,0,132.401,0,144.696
	c0,12.295,9.966,22.261,22.261,22.261s22.261-9.966,22.261-22.261C44.522,132.401,34.556,122.435,22.261,122.435z"/>
</svg>